{
  "accessors": [
    {
      "bufferView": 2,
      "componentType": 5126,
      "count": 3074,
      "max": [
        0.6764815449714661,
        1.9516106843948364,
        0.21114106476306915
      ],
      "min": [
        -1.1634793281555176,
        -2.576094627380371,
        -0.21114106476306915
      ],
      "type": "VEC3"
    },
    {
      "bufferView": 2,
      "byteOffset": 36888,
      "componentType": 5126,
      "count": 3074,
      "max": [
        0.9999897480010986,
        0.9999990463256836,
        0.9999861121177673
      ],
      "min": [
        -1.0,
        -0.999173104763031,
        -0.9999861121177673
      ],
      "type": "VEC3"
    },
    {
      "bufferView": 3,
      "componentType": 5126,
      "count": 3074,
      "max": [
        0.999981164932251,
        0.9989973306655884,
        1.0,
        1.0
      ],
      "min": [
        -0.9999991059303284,
        -0.9998012781143188,
        -1.0,
        -1.0
      ],
      "type": "VEC4"
    },
    {
      "bufferView": 1,
      "componentType": 5126,
      "count": 3074,
      "max": [
        0.9620137214660645,
        0.9945743083953857
      ],
      "min": [
        0.005425650626420975,
        0.005425631999969482
      ],
      "type": "VEC2"
    },
    {
      "bufferView": 1,
      "byteOffset": 24592,
      "componentType": 5126,
      "count": 3074,
      "max": [
        0.9620137214660645,
        0.9945743083953857
      ],
      "min": [
        0.005425650626420975,
        0.005425631999969482
      ],
      "type": "VEC2"
    },
    {
      "bufferView": 1,
      "byteOffset": 49184,
      "componentType": 5126,
      "count": 3074,
      "max": [
        0.9620137214660645,
        0.9945743083953857
      ],
      "min": [
        0.005425650626420975,
        0.005425631999969482
      ],
      "type": "VEC2"
    },
    {
      "bufferView": 1,
      "byteOffset": 73776,
      "componentType": 5126,
      "count": 3074,
      "max": [
        0.9620137214660645,
        0.9945743083953857
      ],
      "min": [
        0.005425650626420975,
        0.005425631999969482
      ],
      "type": "VEC2"
    },
    {
      "bufferView": 0,
      "componentType": 5125,
      "count": 12270,
      "type": "SCALAR"
    }
  ],
  "asset": {
    "extras": {
      "author": "HaydzBooter (https://sketchfab.com/HaydzBooter)",
      "license": "CC-BY-4.0 (http://creativecommons.org/licenses/by/4.0/)",
      "source": "https://sketchfab.com/3d-models/gameready-sion-axe-fanart-a437818e3f7e44de9117c81cee95a3c6",
      "title": "GameReady - Sion Axe Fanart"
    },
    "generator": "Sketchfab-14.91.0",
    "version": "2.0"
  },
  "bufferViews": [
    {
      "buffer": 0,
      "byteLength": 49080,
      "name": "floatBufferViews",
      "target": 34963
    },
    {
      "buffer": 0,
      "byteLength": 98368,
      "byteOffset": 49080,
      "byteStride": 8,
      "name": "floatBufferViews",
      "target": 34962
    },
    {
      "buffer": 0,
      "byteLength": 73776,
      "byteOffset": 147448,
      "byteStride": 12,
      "name": "floatBufferViews",
      "target": 34962
    },
    {
      "buffer": 0,
      "byteLength": 49184,
      "byteOffset": 221224,
      "byteStride": 16,
      "name": "floatBufferViews",
      "target": 34962
    }
  ],
  "buffers": [
    {
      "byteLength": 270408,
      "uri": "scene.bin"
    }
  ],
  "images": [
    {
      "uri": "textures/Sion_Axe_baseColor.png"
    },
    {
      "uri": "textures/Sion_Axe_metallicRoughness.png"
    },
    {
      "uri": "textures/Sion_Axe_normal.png"
    }
  ],
  "materials": [
    {
      "doubleSided": true,
      "name": "Sion_Axe",
      "normalTexture": {
        "index": 2
      },
      "pbrMetallicRoughness": {
        "baseColorTexture": {
          "index": 0
        },
        "metallicRoughnessTexture": {
          "index": 1
        }
      }
    }
  ],
  "meshes": [
    {
      "name": "Object_0",
      "primitives": [
        {
          "attributes": {
            "NORMAL": 1,
            "POSITION": 0,
            "TANGENT": 2,
            "TEXCOORD_0": 3,
            "TEXCOORD_1": 4,
            "TEXCOORD_2": 5,
            "TEXCOORD_3": 6
          },
          "indices": 7,
          "material": 0,
          "mode": 4
        }
      ]
    }
  ],
  "nodes": [
    {
      "children": [
        1
      ],
      "matrix": [
        2.220446049250313e-16,
        2.220446049250313e-16,
        -1.0,
        0.0,
        -1.0,
        4.930380657631324e-32,
        -2.220446049250313e-16,
        0.0,
        0.0,
        1.0,
        2.220446049250313e-16,
        0.0,
        0.0,
        0.0,
        0.0,
        1.0
      ],
      "name": "Sketchfab_model"
    },
    {
      "children": [
        2
      ],
      "name": "root"
    },
    {
      "children": [
        3
      ],
      "matrix": [
        1.0,
        0.0,
        0.0,
        0.0,
        0.0,
        2.220446049250313e-16,
        1.0,
        0.0,
        0.0,
        -1.0,
        2.220446049250313e-16,
        0.0,
        0.0,
        0.0,
        0.0,
        1.0
      ],
      "name": "GLTF_SceneRootNode"
    },
    {
      "children": [
        4
      ],
      "name": "Sion_Axe_0"
    },
    {
      "mesh": 0,
      "name": "Object_4"
    }
  ],
  "samplers": [
    {
      "magFilter": 9729,
      "minFilter": 9987,
      "wrapS": 10497,
      "wrapT": 10497
    }
  ],
  "scene": 0,
  "scenes": [
    {
      "name": "Sketchfab_Scene",
      "nodes": [
        0
      ]
    }
  ],
  "textures": [
    {
      "sampler": 0,
      "source": 0
    },
    {
      "sampler": 0,
      "source": 1
    },
    {
      "sampler": 0,
      "source": 2
    }
  ]
}
